<?xml version="1.0" encoding="UTF-8"?>
<svg id="Layer_1" data-name="Layer 1" xmlns="http://www.w3.org/2000/svg" viewBox="0 0 620.31 912.1">
  <defs>
    <style>
      .cls-1 {
        fill: #1f140f;
      }
    </style>
  </defs>
  <rect width="912.1" height="912.1" fill="white" />
  <g transform="translate(145, 137) scale(0.7)">
    <path class="cls-1" d="M620.31,681.05v30.91h-96.61c-20.53,0-41.28-5.19-62.46-15.35-26.15-14.05-39.34-45.61-39.34-94.67-20.53,34.58-47.55,63.33-81.27,86.67-33.72,23.13-75,34.58-124.06,34.58-115.85,0-175.29-55.76-178.1-167.51,0-94.45,59.44-158.43,178.1-192.15,118.23-33.72,186.53-59.87,204.68-78.46v-65.06c0-62.25-12.1-107.42-36.09-135.73-23.99-28.31-59.01-42.36-104.83-42.36-34.15,0-58.36,10.59-72.84,31.56-14.48,20.97-21.83,46.9-21.83,77.81,0,17.72-6.05,32.64-18.16,44.96-12.1,12.32-27.02,18.16-44.96,18.16s-30.91-6.05-41.07-18.16c-10.16-12.1-15.13-27.02-15.13-44.96,0-12.54,4.11-26.37,12.54-41.28C124.28,36.74,195.39,0,292.65,0c97.26,2.38,162.75,34.37,196.9,95.97,24.86,43.44,37.18,99.86,37.18,169.02v279.68c0,61.17,8,99.21,23.78,114.34,15.78,14.91,38.9,22.48,69.38,22.48l.43-.43ZM421.9,349.71c-15.35,12.1-64.41,30.04-147.19,54.03-82.78,24.21-124.06,70.24-124.06,138.11,2.38,42.58,12.1,72.19,29.39,89.05,17.29,16.86,42.36,25.29,75,25.29,29.83,0,56.63-7.56,80.19-22.48,23.56-14.91,52.52-40.42,86.45-76.3v-207.49l.22-.22Z"/>
    <rect class="cls-1" y="836.88" width="600.86" height="75.22"/>
  </g>
</svg>