<svg xmlns="http://www.w3.org/2000/svg" width="110" height="24" viewBox="0 0 110 24">
    <g fill="none" fill-rule="evenodd">
        <path fill="#F9C32F" d="M25.866 23.226L26.451 23.226 26.451 0 25.866 0zM54.757 23.226L55.343 23.226 55.343 0 54.757 0zM82.867 23.226L83.453 23.226 83.453 0 82.867 0z"/>
        <path fill="#F1BD19" d="M69.16.194c-6.75 0-12.222 5.329-12.222 11.903C56.938 18.67 62.41 24 69.16 24c6.75 0 12.222-5.33 12.222-11.903C81.382 5.523 75.91.194 69.16.194m0 22.258c-5.872 0-10.632-4.637-10.632-10.355 0-5.719 4.76-10.355 10.632-10.355s10.632 4.636 10.632 10.355c0 5.718-4.76 10.355-10.632 10.355"/>
        <path fill="#F9C32F" d="M23.848 5.129L23.848.484 0 .484 0 23.709 4.77 23.709 4.77 15.58 22.656 15.58 22.656 10.935 4.77 10.935 4.77 5.129zM33.388 19.064L33.388.484 28.618.484 28.618 23.709 52.466 23.709 52.466 19.064z"/>
        <path fill="#F1BD19" d="M110 8.613c0-4.49-3.737-8.13-8.347-8.13h-15.8V23.71h4.77v-6.967h8.552l7.154 6.967h3.373v-3.284l-4.55-4.43c2.862-1.29 4.848-4.11 4.848-7.382zM90.623 5.129h11.03c1.973 0 3.577 1.563 3.577 3.484 0 1.92-1.604 3.483-3.577 3.483h-11.03V5.13z"/>
    </g>
</svg>
