<?xml version="1.0" encoding="UTF-8"?>
<svg id="Layer_1" xmlns="http://www.w3.org/2000/svg" version="1.1" viewBox="0 0 498.82 92.9">
  <!-- Generator: Adobe Illustrator 29.5.0, SVG Export Plug-In . SVG Version: 2.1.0 Build 137)  -->
  <defs>
    <style>
      .st0 {
        fill: #5c5b5f;
      }

      .st1 {
        fill: #1f140f;
      }
    </style>
  </defs>
  <g>
    <path class="st1" d="M28.7,51.1v1.43h-4.47c-.95,0-1.91-.24-2.89-.71-1.21-.65-1.82-2.11-1.82-4.38-.95,1.6-2.2,2.93-3.76,4.01-1.56,1.07-3.47,1.6-5.74,1.6-5.36,0-8.11-2.58-8.24-7.75,0-4.37,2.75-7.33,8.24-8.89,5.47-1.56,8.63-2.77,9.47-3.63v-3.01c0-2.88-.56-4.97-1.67-6.28-1.11-1.31-2.73-1.96-4.85-1.96-1.58,0-2.7.49-3.37,1.46-.67.97-1.01,2.17-1.01,3.6,0,.82-.28,1.51-.84,2.08s-1.25.84-2.08.84-1.43-.28-1.9-.84c-.47-.56-.7-1.25-.7-2.08,0-.58.19-1.22.58-1.91,2.1-3.39,5.39-5.09,9.89-5.09,4.5.11,7.53,1.59,9.11,4.44,1.15,2.01,1.72,4.62,1.72,7.82v12.94c0,2.83.37,4.59,1.1,5.29.73.69,1.8,1.04,3.21,1.04ZM19.52,35.77c-.71.56-2.98,1.39-6.81,2.5-3.83,1.12-5.74,3.25-5.74,6.39.11,1.97.56,3.34,1.36,4.12s1.96,1.17,3.47,1.17c1.38,0,2.62-.35,3.71-1.04,1.09-.69,2.43-1.87,4-3.53v-9.6Z"/>
    <path class="st1" d="M56.81,46.76v-13.52c0-3.48-.51-6.23-1.54-8.25-1.03-2.02-2.97-3.03-5.82-3.03-2.51,0-4.54.92-6.1,2.76-1.56,1.84-2.55,4.11-2.98,6.81v15.24c0,1.75.27,2.88.81,3.39.54.51,1.89.76,4.05.76v1.62h-13.94v-1.62c1.95,0,3.19-.25,3.73-.76.54-.51.81-1.64.81-3.39v-20.23c0-1.75-.27-2.88-.81-3.39-.54-.51-1.78-.76-3.73-.76v-1.62l9.08-.65v6.91c.8-2.1,2.1-3.86,3.91-5.29s4.16-2.14,7.05-2.14c3.11,0,5.39.82,6.83,2.46,1.44,1.64,2.29,3.52,2.55,5.64,1.56-2.59,3.22-4.59,4.99-6,1.77-1.4,4.11-2.11,7-2.11,3.11,0,5.57,1.06,7.36,3.18,1.79,2.12,2.69,5.39,2.69,9.83v12c0,1.8.09,3.08.26,3.86.17.78.51,1.42,1.01,1.91.5.5,1.64.75,3.44.75v1.43l-4.28.26c-2.08,0-3.51-.3-4.31-.89-.8-.59-1.2-2.6-1.2-6.01v-12.65c0-3.26-.43-5.96-1.28-8.09-.85-2.13-2.71-3.19-5.56-3.19-2.29.22-4.18,1.21-5.67,2.97-1.49,1.76-2.68,3.58-3.57,5.46v16.38c0,1.75.25,2.88.75,3.39.5.51,1.93.76,4.31.76v1.62h-14.27v-1.62c1.95,0,3.17-.25,3.68-.76.51-.51.76-1.64.76-3.39Z"/>
    <path class="st1" d="M107.33,19.59c3.42,0,6.46,1,9.14,3.01,3.63,2.77,5.45,6.94,5.45,12.52,0,6.9-2.02,11.86-6.06,14.88-2.7,2.03-5.99,3.05-9.86,3.05s-7.34-1.38-10.6-4.15c-1.82,2.34-3.5,3.72-5.06,4.15l-.45-1.2c.86-.95,1.3-3.36,1.3-7.23V6.42c0-1.75-.27-2.88-.81-3.39-.54-.51-1.89-.76-4.05-.76V.65l9.4-.65v25.81c2.33-4.15,6.2-6.23,11.61-6.23ZM112.62,48.28c2.25-2.27,3.37-5.88,3.37-10.83,0-.97-.04-1.99-.13-3.05-.35-4.32-1.72-7.72-4.12-10.18-1.73-1.73-3.93-2.59-6.62-2.59-2.33,0-4.38.97-6.13,2.92s-2.84,4.27-3.28,6.97v7.23c0,1.02.22,2.44.65,4.28.43,1.84,1.51,3.63,3.23,5.37,1.72,1.74,3.93,2.61,6.63,2.61,2.49,0,4.61-.91,6.39-2.72Z"/>
    <path class="st1" d="M136.03,46.76c0,1.69.41,2.8,1.23,3.34.82.54,2.46.81,4.93.81v1.62h-16.86v-1.62c2.46,0,4.11-.27,4.93-.81.82-.54,1.23-1.65,1.23-3.34v-20.23c0-1.75-.41-2.88-1.23-3.39-.82-.51-2.46-.76-4.93-.76v-1.62l10.7-.65v26.65ZM137.13,5.71c0,1.1-.39,2.05-1.18,2.84-.79.79-1.74,1.18-2.84,1.18s-2.05-.39-2.84-1.18c-.79-.79-1.18-1.73-1.18-2.84s.39-2.05,1.18-2.84c.79-.79,1.74-1.18,2.84-1.18s2.05.39,2.84,1.18c.79.79,1.18,1.74,1.18,2.84Z"/>
    <path class="st1" d="M169.23,47.67l1.3,1.3c-2.92,2.72-6.59,4.09-11.03,4.09-5.66,0-9.92-1.66-12.78-4.99-2.38-2.77-3.57-6.3-3.57-10.6,0-5.64,2.02-10.35,6.06-14.11,2.7-2.51,6.02-3.76,9.96-3.76,4.45,0,7.74,1.61,9.86,4.83,1.43,2.16,2.14,4.53,2.14,7.1h-21.63c-.28,1.25-.42,2.64-.42,4.15,0,1.99.24,4.02.71,6.1.63,2.68,1.78,4.91,3.47,6.68,1.69,1.77,3.92,2.66,6.71,2.66,3.59,0,6.66-1.15,9.21-3.44ZM149.97,29.44h15.01c0-1.92-.38-3.58-1.14-4.96-1.08-1.99-2.8-2.98-5.16-2.98-2.18,0-3.99.69-5.42,2.08-1.41,1.36-2.51,3.32-3.31,5.87Z"/>
    <path class="st1" d="M211,51.1v1.43l-4.28.26c-2.08,0-3.51-.3-4.31-.89-.8-.59-1.2-2.6-1.2-6.01v-12.65c0-3.48-.48-6.23-1.44-8.25-.96-2.02-2.98-3.03-6.05-3.03-2.51,0-4.59.92-6.26,2.76-1.66,1.84-2.71,4.11-3.15,6.81v15.24c0,1.75.27,2.88.81,3.39.54.51,1.89.76,4.05.76v1.62h-13.94v-1.62c1.95,0,3.19-.25,3.73-.76.54-.51.81-1.64.81-3.39v-20.23c0-1.75-.27-2.88-.81-3.39-.54-.51-1.78-.76-3.73-.76v-1.62l9.08-.65v6.91c.8-2.1,2.21-3.86,4.23-5.29,2.02-1.43,4.48-2.14,7.38-2.14,3.11,0,5.62,1.06,7.52,3.18,1.9,2.12,2.85,5.39,2.85,9.83v12c0,1.8.09,3.08.26,3.86.17.78.51,1.42,1.01,1.91.5.5,1.64.75,3.44.75Z"/>
    <path class="st1" d="M220.89,44.52c0,1.79.03,3.08.1,3.84.06.77.29,1.35.68,1.75.39.4.88.6,1.46.6.99,0,2.06-.41,3.21-1.23l.94,1.26c-1.82,1.54-3.7,2.3-5.64,2.3s-3.43-.51-4.2-1.54c-.77-1.03-1.15-3.25-1.15-6.66v-21.89h-5.45v-1.88c1.73-.22,3.09-.63,4.09-1.23,2.12-1.58,3.18-4.68,3.18-9.31h2.79v9.57h9.34v2.85h-9.34v21.56Z"/>
    <path class="st1" d="M257.76,47.67l1.3,1.3c-2.92,2.72-6.59,4.09-11.03,4.09-5.66,0-9.92-1.66-12.78-4.99-2.38-2.77-3.57-6.3-3.57-10.6,0-5.64,2.02-10.35,6.06-14.11,2.7-2.51,6.02-3.76,9.96-3.76,4.45,0,7.74,1.61,9.86,4.83,1.43,2.16,2.14,4.53,2.14,7.1h-21.63c-.28,1.25-.42,2.64-.42,4.15,0,1.99.24,4.02.71,6.1.63,2.68,1.78,4.91,3.47,6.68,1.69,1.77,3.92,2.66,6.71,2.66,3.59,0,6.66-1.15,9.21-3.44ZM238.5,29.44h15.01c0-1.92-.38-3.58-1.14-4.96-1.08-1.99-2.8-2.98-5.16-2.98-2.18,0-3.99.69-5.42,2.08-1.41,1.36-2.51,3.32-3.31,5.87Z"/>
    <path class="st1" d="M285.58,44c0,3.01-1.02,5.3-3.05,6.87-2.08,1.45-4.9,2.17-8.46,2.17-3.29,0-5.85-.66-7.7-1.98-1.85-1.32-2.77-2.78-2.77-4.38,0-.82.29-1.51.86-2.08.57-.56,1.26-.84,2.06-.84s1.49.28,2.06.84c.57.56.86,1.25.86,2.08,0,1.04.46,2.02,1.39,2.93.93.92,2.18,1.41,3.76,1.48h.55c1.92,0,3.46-.37,4.62-1.12,1.16-.75,1.74-2.25,1.74-4.52,0-1.32-.39-2.5-1.18-3.53-.79-1.04-2.87-2.13-6.24-3.29-3.37-1.16-5.85-2.51-7.44-4.05-1.59-1.54-2.38-3.53-2.38-5.95,0-2.77.93-4.99,2.79-6.68,2.01-1.58,4.5-2.37,7.46-2.37,2.33,0,4.45.62,6.36,1.85,1.25.8,2.16,1.59,2.72,2.37s.84,1.49.84,2.14c0,.82-.29,1.51-.86,2.08-.57.56-1.26.84-2.06.84s-1.49-.28-2.06-.84-.86-1.25-.86-2.08c0-1.14-.38-2.17-1.13-3.06-.76-.9-1.91-1.35-3.47-1.35s-2.9.39-4.04,1.17c-1.13.78-1.7,2.26-1.7,4.44,0,1.21.39,2.29,1.18,3.24.79.95,2.95,2,6.47,3.15,3.52,1.15,6.02,2.53,7.49,4.15,1.47,1.62,2.2,3.73,2.2,6.32Z"/>
    <path class="st0" d="M314.57,47.67l1.3,1.3c-2.7,2.72-6.16,4.09-10.38,4.09-3.93,0-7.3-.88-10.08-2.63-4.17-2.66-6.26-7.04-6.26-13.13,0-4.5,1.26-8.41,3.79-11.74,3-3.98,7.19-5.97,12.55-5.97,2.16,0,4.23.46,6.19,1.39,1.97.93,3.38,2,4.25,3.21.39.52.58,1.1.58,1.75,0,.82-.29,1.51-.86,2.08-.57.56-1.26.84-2.06.84s-1.49-.28-2.06-.84-.86-1.25-.86-2.08c0-1.25-.55-2.3-1.65-3.14s-2.45-1.26-4.05-1.26c-2.53,0-4.64.98-6.32,2.95-2.23,2.57-3.34,6.51-3.34,11.8,0,.56.01,1.13.03,1.72.17,4.43,1.49,7.88,3.96,10.34,1.69,1.84,3.92,2.76,6.71,2.76,3.2,0,6.05-1.15,8.56-3.44Z"/>
    <path class="st0" d="M335.91,19.59c3.8,0,7.07.86,9.79,2.59,4.35,2.72,6.52,7.33,6.52,13.81,0,4.43-1.47,8.32-4.41,11.67-3.16,3.59-7.12,5.38-11.9,5.38-3.8,0-7.07-.86-9.79-2.59-4.34-2.72-6.52-7.33-6.52-13.81,0-4.43,1.47-8.32,4.41-11.67,3.16-3.59,7.12-5.38,11.9-5.38ZM336.23,51.1c3.48,0,6.11-1.71,7.88-5.12,1.32-2.57,1.98-5.65,1.98-9.24,0-.69-.02-1.41-.06-2.14-.22-3.13-1.11-5.93-2.69-8.4-1.94-3.11-4.53-4.67-7.75-4.67-3.48,0-6.11,1.71-7.88,5.12-1.32,2.57-1.98,5.65-1.98,9.24,0,.69.02,1.41.06,2.14.22,3.13,1.11,5.93,2.69,8.4,1.95,3.11,4.53,4.67,7.75,4.67Z"/>
    <path class="st0" d="M390.09,51.1v1.43l-4.28.26c-2.08,0-3.51-.3-4.31-.89-.8-.59-1.2-2.6-1.2-6.01v-12.65c0-3.48-.48-6.23-1.44-8.25-.96-2.02-2.98-3.03-6.05-3.03-2.51,0-4.59.92-6.26,2.76-1.66,1.84-2.71,4.11-3.14,6.81v15.24c0,1.75.27,2.88.81,3.39s1.89.76,4.05.76v1.62h-13.94v-1.62c1.94,0,3.19-.25,3.73-.76s.81-1.64.81-3.39v-20.23c0-1.75-.27-2.88-.81-3.39s-1.78-.76-3.73-.76v-1.62l9.08-.65v6.91c.8-2.1,2.21-3.86,4.23-5.29,2.02-1.43,4.48-2.14,7.38-2.14,3.11,0,5.62,1.06,7.52,3.18,1.9,2.12,2.85,5.39,2.85,9.83v12c0,1.8.09,3.08.26,3.86.17.78.51,1.42,1.01,1.91.5.5,1.64.75,3.44.75Z"/>
    <path class="st1" d="M419.28,51.1v1.43h-4.47c-.95,0-1.91-.24-2.89-.71-1.21-.65-1.82-2.11-1.82-4.38-.95,1.6-2.2,2.93-3.76,4.01-1.56,1.07-3.47,1.6-5.74,1.6-5.36,0-8.11-2.58-8.24-7.75,0-4.37,2.74-7.33,8.24-8.89,5.47-1.56,8.63-2.77,9.47-3.63v-3.01c0-2.88-.56-4.97-1.67-6.28-1.11-1.31-2.73-1.96-4.85-1.96-1.58,0-2.7.49-3.37,1.46-.67.97-1.01,2.17-1.01,3.6,0,.82-.28,1.51-.84,2.08s-1.25.84-2.08.84-1.43-.28-1.9-.84-.7-1.25-.7-2.08c0-.58.19-1.22.58-1.91,2.1-3.39,5.39-5.09,9.89-5.09,4.5.11,7.53,1.59,9.11,4.44,1.14,2.01,1.72,4.62,1.72,7.82v12.94c0,2.83.37,4.59,1.1,5.29.73.69,1.8,1.04,3.21,1.04ZM410.1,35.77c-.71.56-2.98,1.39-6.81,2.5-3.83,1.12-5.74,3.25-5.74,6.39.11,1.97.56,3.34,1.36,4.12s1.96,1.17,3.47,1.17c1.38,0,2.62-.35,3.71-1.04,1.09-.69,2.43-1.87,4-3.53v-9.6Z"/>
    <path class="st1" d="M443.73,26.75c-1.08,0-2.05-.55-2.9-1.65-.85-1.1-1.76-1.65-2.71-1.65-1.15,0-2.41,1.16-3.79,3.47s-2.18,4.82-2.4,7.52v12.32c0,1.75.27,2.88.81,3.39s1.89.76,4.05.76v1.62h-13.94v-1.62c1.94,0,3.19-.25,3.73-.76s.81-1.64.81-3.39v-20.23c0-1.75-.27-2.88-.81-3.39s-1.78-.76-3.73-.76v-1.62l9.08-.65v9.5c.8-3.39,2.21-5.91,4.23-7.56,2.02-1.64,4.26-2.46,6.73-2.46s3.74.83,3.96,2.5c.02.26.03.51.03.75,0,1.15-.24,2.09-.71,2.82-.48.74-1.29,1.1-2.43,1.1Z"/>
    <path class="st1" d="M460,44.52c0,1.79.03,3.08.1,3.84.06.77.29,1.35.68,1.75.39.4.87.6,1.46.6.99,0,2.06-.41,3.21-1.23l.94,1.26c-1.82,1.54-3.7,2.3-5.64,2.3s-3.43-.51-4.2-1.54c-.77-1.03-1.15-3.25-1.15-6.66v-21.89h-5.45v-1.88c1.73-.22,3.09-.63,4.09-1.23,2.12-1.58,3.18-4.68,3.18-9.31h2.79v9.57h9.34v2.85h-9.34v21.56Z"/>
    <path class="st1" d="M496.87,47.67l1.3,1.3c-2.92,2.72-6.59,4.09-11.03,4.09-5.66,0-9.92-1.66-12.78-4.99-2.38-2.77-3.57-6.3-3.57-10.6,0-5.64,2.02-10.35,6.06-14.11,2.7-2.51,6.02-3.76,9.96-3.76,4.45,0,7.74,1.61,9.86,4.83,1.43,2.16,2.14,4.53,2.14,7.1h-21.63c-.28,1.25-.42,2.64-.42,4.15,0,1.99.24,4.02.71,6.1.63,2.68,1.78,4.91,3.47,6.68s3.92,2.66,6.71,2.66c3.59,0,6.66-1.15,9.21-3.44ZM477.61,29.44h15.01c0-1.92-.38-3.58-1.13-4.96-1.08-1.99-2.8-2.98-5.16-2.98-2.18,0-3.99.69-5.42,2.08-1.41,1.36-2.51,3.32-3.31,5.87Z"/>
  </g>
  <rect class="st1" x="392.59" y="58.31" width="27.8" height="3.48"/>
  <rect class="st1" x="0" y="58.31" width="27.8" height="3.48"/>
  <g>
    <path class="st1" d="M69.48,92.9v-17.06h.48v4.56l-.24,1.68.24,1.68v9.14h-.48ZM75.5,88.32c-1.14,0-2.15-.27-3.05-.8-.9-.54-1.6-1.28-2.12-2.22-.52-.94-.78-2.02-.78-3.24s.26-2.32.78-3.26c.52-.94,1.23-1.68,2.12-2.22s1.91-.8,3.05-.8,2.16.27,3.07.8,1.63,1.28,2.16,2.22c.53.94.79,2.03.79,3.26s-.26,2.3-.79,3.24c-.53.94-1.25,1.68-2.16,2.22-.91.54-1.94.8-3.07.8ZM75.5,87.86c1.06,0,2-.24,2.84-.73.84-.49,1.5-1.17,1.98-2.05s.72-1.89.72-3.02-.24-2.16-.72-3.04-1.14-1.56-1.98-2.05c-.84-.5-1.79-.74-2.84-.74s-2,.25-2.84.74c-.84.5-1.5,1.18-1.98,2.05s-.72,1.88-.72,3.04.24,2.14.72,3.02,1.14,1.56,1.98,2.05c.84.49,1.79.73,2.84.73Z"/>
    <path class="st1" d="M88.77,88.32c-.93,0-1.72-.14-2.38-.43-.66-.29-1.16-.7-1.5-1.22-.34-.53-.52-1.14-.52-1.82,0-.59.14-1.14.42-1.64.28-.5.74-.91,1.38-1.22.64-.31,1.51-.47,2.62-.47h4.97v.46h-4.99c-1.41,0-2.41.27-3.01.8-.6.54-.9,1.22-.9,2.05,0,.93.34,1.67,1.03,2.22s1.65.83,2.88.83,2.19-.28,2.96-.83c.78-.55,1.36-1.33,1.76-2.34l.24.31c-.34.99-.92,1.79-1.76,2.4-.84.61-1.91.91-3.2.91ZM93.5,88.25v-8.11c0-1.3-.34-2.27-1.01-2.93-.67-.66-1.65-.98-2.93-.98-.93,0-1.78.16-2.54.48-.77.32-1.42.74-1.97,1.25l-.34-.34c.59-.56,1.31-1.01,2.16-1.34.85-.34,1.74-.5,2.66-.5,1.44,0,2.54.37,3.3,1.1.76.74,1.14,1.82,1.14,3.24v8.14h-.48Z"/>
    <path class="st1" d="M99.36,92.9v-17.06h.48v4.56l-.24,1.68.24,1.68v9.14h-.48ZM105.38,88.32c-1.14,0-2.15-.27-3.05-.8-.9-.54-1.6-1.28-2.12-2.22-.52-.94-.78-2.02-.78-3.24s.26-2.32.78-3.26c.52-.94,1.23-1.68,2.12-2.22s1.91-.8,3.05-.8,2.16.27,3.07.8,1.63,1.28,2.16,2.22c.53.94.79,2.03.79,3.26s-.26,2.3-.79,3.24c-.53.94-1.25,1.68-2.16,2.22-.91.54-1.94.8-3.07.8ZM105.38,87.86c1.06,0,2-.24,2.84-.73.84-.49,1.5-1.17,1.98-2.05s.72-1.89.72-3.02-.24-2.16-.72-3.04-1.14-1.56-1.98-2.05c-.84-.5-1.79-.74-2.84-.74s-2,.25-2.84.74c-.84.5-1.5,1.18-1.98,2.05s-.72,1.88-.72,3.04.24,2.14.72,3.02,1.14,1.56,1.98,2.05c.84.49,1.79.73,2.84.73Z"/>
    <path class="st1" d="M120.19,88.32c-1.2,0-2.26-.27-3.19-.8-.93-.54-1.66-1.28-2.2-2.23-.54-.95-.8-2.04-.8-3.25s.25-2.32.74-3.25c.5-.94,1.18-1.67,2.05-2.21s1.85-.8,2.94-.8,2.07.26,2.94.78c.87.52,1.56,1.24,2.06,2.17.5.93.76,1.99.76,3.19v.12h-11.23v-.46h10.97l-.19.36c0-1.09-.23-2.06-.7-2.93-.46-.86-1.09-1.54-1.88-2.04-.79-.5-1.7-.74-2.72-.74s-1.91.25-2.71.74c-.8.5-1.43,1.18-1.88,2.04-.46.86-.68,1.84-.68,2.93v.1c0,1.14.25,2.14.74,3.02.5.88,1.18,1.57,2.04,2.06.86.5,1.85.74,2.95.74.83,0,1.62-.16,2.36-.48.74-.32,1.36-.8,1.86-1.44l.34.34c-.54.67-1.22,1.18-2.02,1.52-.8.34-1.65.52-2.54.52Z"/>
    <path class="st1" d="M129.55,88.25v-17.81h.48v17.81h-.48Z"/>
    <path class="st1" d="M141.55,92.9v-17.06h.48v4.56l-.24,1.68.24,1.68v9.14h-.48ZM147.57,88.32c-1.14,0-2.15-.27-3.05-.8-.9-.54-1.6-1.28-2.12-2.22-.52-.94-.78-2.02-.78-3.24s.26-2.32.78-3.26c.52-.94,1.23-1.68,2.12-2.22s1.91-.8,3.05-.8,2.16.27,3.07.8,1.63,1.28,2.16,2.22c.53.94.79,2.03.79,3.26s-.26,2.3-.79,3.24c-.53.94-1.25,1.68-2.16,2.22-.91.54-1.94.8-3.07.8ZM147.57,87.86c1.06,0,2-.24,2.84-.73.84-.49,1.5-1.17,1.98-2.05s.72-1.89.72-3.02-.24-2.16-.72-3.04-1.14-1.56-1.98-2.05c-.84-.5-1.79-.74-2.84-.74s-2,.25-2.84.74c-.84.5-1.5,1.18-1.98,2.05s-.72,1.88-.72,3.04.24,2.14.72,3.02,1.14,1.56,1.98,2.05c.84.49,1.79.73,2.84.73Z"/>
    <path class="st1" d="M157.89,72.41c-.16,0-.3-.06-.43-.19-.13-.13-.19-.27-.19-.43,0-.18.06-.32.19-.44s.27-.18.43-.18c.18,0,.32.06.44.18.12.12.18.27.18.44,0,.16-.06.3-.18.43-.12.13-.27.19-.44.19ZM157.65,88.25v-12.41h.48v12.41h-.48Z"/>
    <path class="st1" d="M163.65,88.25v-12.41h.48v3.53l-.05-.07c.37-1.09,1-1.95,1.9-2.58.9-.63,2.02-.95,3.36-.95,1.02,0,1.9.2,2.64.59.74.39,1.31.97,1.72,1.74.41.77.61,1.71.61,2.83v7.32h-.48v-7.32c0-1.54-.39-2.7-1.18-3.5-.78-.8-1.88-1.2-3.29-1.2-1.09,0-2.02.22-2.81.66-.78.44-1.38,1.06-1.8,1.85s-.62,1.72-.62,2.77v6.74h-.48Z"/>
    <path class="st1" d="M177.48,76.29v-.46h7.08v.46h-7.08ZM182.88,88.32c-.98,0-1.72-.28-2.23-.84-.51-.56-.77-1.3-.77-2.21v-12.14h.48v12.02c0,.88.22,1.55.65,2.02s1.06.7,1.9.7,1.52-.26,2.06-.77l.34.34c-.29.3-.65.53-1.09.67-.44.14-.88.22-1.33.22Z"/>
    <path class="st1" d="M191.71,88.32c-.93,0-1.72-.14-2.38-.43-.66-.29-1.16-.7-1.5-1.22-.34-.53-.52-1.14-.52-1.82,0-.59.14-1.14.42-1.64.28-.5.74-.91,1.38-1.22.64-.31,1.51-.47,2.62-.47h4.97v.46h-4.99c-1.41,0-2.41.27-3.01.8-.6.54-.9,1.22-.9,2.05,0,.93.34,1.67,1.03,2.22s1.65.83,2.88.83,2.19-.28,2.96-.83c.78-.55,1.36-1.33,1.76-2.34l.24.31c-.34.99-.92,1.79-1.76,2.4-.84.61-1.91.91-3.2.91ZM196.43,88.25v-8.11c0-1.3-.34-2.27-1.01-2.93-.67-.66-1.65-.98-2.93-.98-.93,0-1.78.16-2.54.48-.77.32-1.42.74-1.97,1.25l-.34-.34c.59-.56,1.31-1.01,2.16-1.34.85-.34,1.74-.5,2.66-.5,1.44,0,2.54.37,3.3,1.1.76.74,1.14,1.82,1.14,3.24v8.14h-.48Z"/>
    <path class="st1" d="M202.29,88.25v-12.41h.48v3.53l-.05-.07c.37-1.09,1-1.95,1.9-2.58.9-.63,2.02-.95,3.36-.95,1.02,0,1.9.2,2.64.59.74.39,1.31.97,1.72,1.74.41.77.61,1.71.61,2.83v7.32h-.48v-7.32c0-1.54-.39-2.7-1.18-3.5-.78-.8-1.88-1.2-3.29-1.2-1.09,0-2.02.22-2.81.66-.78.44-1.38,1.06-1.8,1.85s-.62,1.72-.62,2.77v6.74h-.48Z"/>
    <path class="st1" d="M222.88,88.32c-1.14,0-2.16-.27-3.07-.8-.91-.54-1.63-1.28-2.16-2.23-.53-.95-.79-2.04-.79-3.25s.26-2.32.79-3.25c.53-.94,1.25-1.67,2.16-2.21s1.94-.8,3.07-.8,2.15.27,3.05.8c.9.54,1.6,1.27,2.12,2.21.52.94.78,2.02.78,3.25s-.26,2.3-.78,3.25c-.52.95-1.23,1.7-2.12,2.23-.9.54-1.91.8-3.05.8ZM222.88,87.86c1.06,0,2-.25,2.84-.74s1.5-1.18,1.98-2.06c.48-.88.72-1.89.72-3.02s-.24-2.16-.72-3.04-1.14-1.55-1.98-2.04-1.79-.73-2.84-.73-2,.24-2.83.73-1.49,1.17-1.98,2.04-.73,1.88-.73,3.04.24,2.14.73,3.02c.49.88,1.15,1.57,1.98,2.06s1.78.74,2.83.74ZM228.43,88.25v-4.56l.24-1.68-.24-1.68v-9.89h.48v17.81h-.48Z"/>
    <path class="st1" d="M238.99,88.32c-1.15,0-2.18-.27-3.08-.8-.9-.54-1.62-1.28-2.15-2.23-.53-.95-.79-2.04-.79-3.25s.26-2.32.79-3.25c.53-.94,1.24-1.67,2.15-2.21s1.93-.8,3.08-.8,2.18.27,3.1.8c.91.54,1.63,1.27,2.15,2.21.52.94.78,2.02.78,3.25s-.26,2.3-.78,3.25c-.52.95-1.24,1.7-2.15,2.23-.91.54-1.94.8-3.1.8ZM238.99,87.86c1.06,0,2-.25,2.84-.74.84-.5,1.5-1.18,1.98-2.06.48-.88.72-1.89.72-3.02s-.24-2.16-.72-3.04c-.48-.87-1.14-1.55-1.98-2.04-.84-.49-1.79-.73-2.84-.73s-2,.24-2.83.73-1.49,1.17-1.98,2.04-.73,1.88-.73,3.04.24,2.14.73,3.02c.49.88,1.15,1.57,1.98,2.06s1.78.74,2.83.74Z"/>
    <path class="st1" d="M255.07,92.9v-17.06h.48v4.56l-.24,1.68.24,1.68v9.14h-.48ZM261.09,88.32c-1.14,0-2.15-.27-3.05-.8-.9-.54-1.6-1.28-2.12-2.22-.52-.94-.78-2.02-.78-3.24s.26-2.32.78-3.26c.52-.94,1.23-1.68,2.12-2.22.9-.54,1.91-.8,3.05-.8s2.16.27,3.07.8c.91.54,1.63,1.28,2.16,2.22.53.94.79,2.03.79,3.26s-.26,2.3-.79,3.24c-.53.94-1.25,1.68-2.16,2.22-.91.54-1.94.8-3.07.8ZM261.09,87.86c1.06,0,2-.24,2.84-.73.84-.49,1.5-1.17,1.98-2.05.48-.88.72-1.89.72-3.02s-.24-2.16-.72-3.04c-.48-.87-1.14-1.56-1.98-2.05-.84-.5-1.79-.74-2.84-.74s-2,.25-2.84.74c-.84.5-1.5,1.18-1.98,2.05-.48.87-.72,1.88-.72,3.04s.24,2.14.72,3.02c.48.88,1.14,1.56,1.98,2.05.84.49,1.79.73,2.84.73Z"/>
    <path class="st1" d="M275.9,88.32c-1.2,0-2.26-.27-3.19-.8-.93-.54-1.66-1.28-2.2-2.23s-.8-2.04-.8-3.25.25-2.32.74-3.25c.5-.94,1.18-1.67,2.05-2.21s1.85-.8,2.94-.8,2.07.26,2.94.78c.87.52,1.56,1.24,2.06,2.17.5.93.76,1.99.76,3.19v.12h-11.23v-.46h10.97l-.19.36c0-1.09-.23-2.06-.7-2.93-.46-.86-1.09-1.54-1.88-2.04-.79-.5-1.7-.74-2.72-.74s-1.91.25-2.71.74c-.8.5-1.43,1.18-1.88,2.04-.46.86-.68,1.84-.68,2.93v.1c0,1.14.25,2.14.74,3.02.5.88,1.18,1.57,2.04,2.06s1.85.74,2.95.74c.83,0,1.62-.16,2.36-.48.74-.32,1.36-.8,1.86-1.44l.34.34c-.54.67-1.22,1.18-2.02,1.52-.8.34-1.65.52-2.54.52Z"/>
    <path class="st1" d="M285.26,88.25v-12.41h.48v3.43l-.05-.07c.34-1.09.92-1.93,1.76-2.53s1.89-.9,3.16-.9v.48h-.14c-1.49,0-2.65.48-3.48,1.43-.83.95-1.25,2.25-1.25,3.9v6.67h-.48Z"/>
    <path class="st1" d="M297.19,88.32c-1.01,0-1.95-.16-2.83-.48-.88-.32-1.55-.73-2.02-1.22l.29-.38c.45.43,1.07.81,1.87,1.14s1.7.49,2.69.49c1.47,0,2.53-.26,3.17-.77.64-.51.96-1.18.96-1.99,0-.59-.15-1.06-.46-1.4-.3-.34-.71-.61-1.21-.79s-1.06-.33-1.67-.44c-.61-.11-1.22-.23-1.82-.36-.61-.13-1.16-.31-1.67-.54-.5-.23-.91-.55-1.21-.96-.3-.41-.46-.96-.46-1.64,0-.56.15-1.08.46-1.56.3-.48.78-.87,1.43-1.18.65-.3,1.48-.46,2.51-.46.77,0,1.53.12,2.28.35.75.23,1.36.54,1.82.92l-.29.38c-.5-.4-1.08-.7-1.75-.9s-1.36-.3-2.06-.3c-1.36,0-2.35.26-2.96.79-.62.53-.92,1.18-.92,1.94,0,.61.15,1.09.46,1.45s.71.64,1.21.83c.5.19,1.06.34,1.67.46s1.21.23,1.81.36c.6.13,1.15.3,1.66.53.5.22.91.53,1.21.92.3.39.46.92.46,1.6,0,.62-.17,1.18-.5,1.67s-.84.87-1.52,1.14c-.68.27-1.54.41-2.58.41Z"/>
    <path class="st1" d="M310,88.32c-1.15,0-2.18-.27-3.08-.8-.9-.54-1.62-1.28-2.15-2.23s-.79-2.04-.79-3.25.26-2.32.79-3.25c.53-.94,1.24-1.67,2.15-2.21.9-.54,1.93-.8,3.08-.8s2.18.27,3.1.8,1.63,1.27,2.15,2.21c.52.94.78,2.02.78,3.25s-.26,2.3-.78,3.25c-.52.95-1.24,1.7-2.15,2.23-.91.54-1.94.8-3.1.8ZM310,87.86c1.06,0,2-.25,2.84-.74s1.5-1.18,1.98-2.06c.48-.88.72-1.89.72-3.02s-.24-2.16-.72-3.04c-.48-.87-1.14-1.55-1.98-2.04s-1.79-.73-2.84-.73-2,.24-2.83.73c-.83.49-1.49,1.17-1.98,2.04s-.73,1.88-.73,3.04.24,2.14.73,3.02c.49.88,1.15,1.57,1.98,2.06.83.5,1.78.74,2.83.74Z"/>
    <path class="st1" d="M320.08,88.25v-12.41h.48v3.53l-.05-.07c.37-1.09,1-1.95,1.9-2.58.9-.63,2.02-.95,3.36-.95,1.02,0,1.9.2,2.64.59.74.39,1.31.97,1.72,1.74.41.77.61,1.71.61,2.83v7.32h-.48v-7.32c0-1.54-.39-2.7-1.18-3.5-.78-.8-1.88-1.2-3.29-1.2-1.09,0-2.02.22-2.81.66-.78.44-1.38,1.06-1.8,1.85-.42.79-.62,1.72-.62,2.77v6.74h-.48Z"/>
    <path class="st1" d="M339.31,88.32c-.93,0-1.72-.14-2.38-.43-.66-.29-1.16-.7-1.5-1.22-.34-.53-.52-1.14-.52-1.82,0-.59.14-1.14.42-1.64.28-.5.74-.91,1.38-1.22.64-.31,1.51-.47,2.62-.47h4.97v.46h-4.99c-1.41,0-2.41.27-3.01.8-.6.54-.9,1.22-.9,2.05,0,.93.34,1.67,1.03,2.22.69.55,1.65.83,2.88.83s2.19-.28,2.96-.83c.78-.55,1.36-1.33,1.76-2.34l.24.31c-.34.99-.92,1.79-1.76,2.4s-1.91.91-3.2.91ZM344.03,88.25v-8.11c0-1.3-.34-2.27-1.01-2.93s-1.65-.98-2.93-.98c-.93,0-1.78.16-2.54.48-.77.32-1.42.74-1.97,1.25l-.34-.34c.59-.56,1.31-1.01,2.16-1.34.85-.34,1.74-.5,2.66-.5,1.44,0,2.54.37,3.3,1.1.76.74,1.14,1.82,1.14,3.24v8.14h-.48Z"/>
    <path class="st1" d="M349.89,88.25v-17.81h.48v17.81h-.48Z"/>
    <path class="st1" d="M356.13,72.41c-.16,0-.3-.06-.43-.19-.13-.13-.19-.27-.19-.43,0-.18.06-.32.19-.44.13-.12.27-.18.43-.18.18,0,.32.06.44.18s.18.27.18.44c0,.16-.06.3-.18.43-.12.13-.27.19-.44.19ZM355.89,88.25v-12.41h.48v12.41h-.48Z"/>
    <path class="st1" d="M360.23,88.25v-.36l8.86-11.74.19.14h-8.93v-.46h9.29v.36l-8.86,11.74-.29-.14h9.26v.46h-9.53Z"/>
    <path class="st1" d="M376.87,88.32c-.93,0-1.72-.14-2.38-.43-.66-.29-1.16-.7-1.5-1.22-.34-.53-.52-1.14-.52-1.82,0-.59.14-1.14.42-1.64.28-.5.74-.91,1.38-1.22.64-.31,1.51-.47,2.62-.47h4.97v.46h-4.99c-1.41,0-2.41.27-3.01.8-.6.54-.9,1.22-.9,2.05,0,.93.34,1.67,1.03,2.22.69.55,1.65.83,2.88.83s2.19-.28,2.96-.83c.78-.55,1.36-1.33,1.76-2.34l.24.31c-.34.99-.92,1.79-1.76,2.4s-1.91.91-3.2.91ZM381.59,88.25v-8.11c0-1.3-.34-2.27-1.01-2.93s-1.65-.98-2.93-.98c-.93,0-1.78.16-2.54.48-.77.32-1.42.74-1.97,1.25l-.34-.34c.59-.56,1.31-1.01,2.16-1.34.85-.34,1.74-.5,2.66-.5,1.44,0,2.54.37,3.3,1.1.76.74,1.14,1.82,1.14,3.24v8.14h-.48Z"/>
    <path class="st1" d="M392.01,88.32c-1.14,0-2.16-.27-3.07-.8-.91-.54-1.63-1.28-2.16-2.23s-.79-2.04-.79-3.25.26-2.32.79-3.25c.53-.94,1.25-1.67,2.16-2.21s1.94-.8,3.07-.8,2.15.27,3.05.8c.9.54,1.6,1.27,2.12,2.21.52.94.78,2.02.78,3.25s-.26,2.3-.78,3.25c-.52.95-1.23,1.7-2.12,2.23-.9.54-1.91.8-3.05.8ZM392.01,87.86c1.06,0,2-.25,2.84-.74s1.5-1.18,1.98-2.06c.48-.88.72-1.89.72-3.02s-.24-2.16-.72-3.04c-.48-.87-1.14-1.55-1.98-2.04s-1.79-.73-2.84-.73-2,.24-2.83.73c-.83.49-1.49,1.17-1.98,2.04s-.73,1.88-.73,3.04.24,2.14.73,3.02c.49.88,1.15,1.57,1.98,2.06.83.5,1.78.74,2.83.74ZM397.55,88.25v-4.56l.24-1.68-.24-1.68v-9.89h.48v17.81h-.48Z"/>
    <path class="st1" d="M408.11,88.32c-1.15,0-2.18-.27-3.08-.8-.9-.54-1.62-1.28-2.15-2.23s-.79-2.04-.79-3.25.26-2.32.79-3.25c.53-.94,1.24-1.67,2.15-2.21.9-.54,1.93-.8,3.08-.8s2.18.27,3.1.8,1.63,1.27,2.15,2.21c.52.94.78,2.02.78,3.25s-.26,2.3-.78,3.25c-.52.95-1.24,1.7-2.15,2.23-.91.54-1.94.8-3.1.8ZM408.11,87.86c1.06,0,2-.25,2.84-.74s1.5-1.18,1.98-2.06c.48-.88.72-1.89.72-3.02s-.24-2.16-.72-3.04c-.48-.87-1.14-1.55-1.98-2.04s-1.79-.73-2.84-.73-2,.24-2.83.73c-.83.49-1.49,1.17-1.98,2.04s-.73,1.88-.73,3.04.24,2.14.73,3.02c.49.88,1.15,1.57,1.98,2.06.83.5,1.78.74,2.83.74Z"/>
  </g>
</svg>